<svg width="51" height="50" viewBox="0 0 51 50" fill="none" xmlns="http://www.w3.org/2000/svg">
<path d="M50.5 24.7242C50.5 38.0293 39.3238 48.8449 25.5 48.8449C11.6762 48.8449 0.5 38.0293 0.5 24.7242C0.5 11.4191 11.6762 0.603516 25.5 0.603516C39.3238 0.603516 50.5 11.4191 50.5 24.7242Z" stroke="white"/>
<g clip-path="url(#clip0_502_12)">
<path fill-rule="evenodd" clip-rule="evenodd" d="M20.2239 14.1727C18.5914 14.1727 17.0258 14.8212 15.8715 15.9755C14.7172 17.1298 14.0687 18.6954 14.0687 20.3279V30.8796C14.0687 32.512 14.7172 34.0776 15.8715 35.2319C17.0258 36.3863 18.5914 37.0348 20.2239 37.0348H30.7756C32.408 37.0348 33.9736 36.3863 35.1279 35.2319C36.2823 34.0776 36.9307 32.512 36.9307 30.8796V20.3279C36.9307 18.6954 36.2823 17.1298 35.1279 15.9755C33.9736 14.8212 32.408 14.1727 30.7756 14.1727H20.2239ZM14.628 14.732C16.1121 13.2478 18.125 12.4141 20.2239 12.4141H30.7756C32.8744 12.4141 34.8873 13.2478 36.3715 14.732C37.8556 16.2161 38.6894 18.229 38.6894 20.3279V30.8796C38.6894 32.9784 37.8556 34.9914 36.3715 36.4755C34.8873 37.9596 32.8744 38.7934 30.7756 38.7934H20.2239C18.125 38.7934 16.1121 37.9596 14.628 36.4755C13.1438 34.9914 12.3101 32.9784 12.3101 30.8796V20.3279C12.3101 18.229 13.1438 16.2161 14.628 14.732ZM33.4135 19.4485H31.6549V17.6899H33.4135V19.4485ZM25.4997 21.2072C24.3337 21.2072 23.2154 21.6704 22.3909 22.4949C21.5664 23.3194 21.1032 24.4377 21.1032 25.6037C21.1032 26.7698 21.5664 27.888 22.3909 28.7125C23.2154 29.5371 24.3337 30.0003 25.4997 30.0003C26.6658 30.0003 27.784 29.5371 28.6085 28.7125C29.4331 27.888 29.8963 26.7698 29.8963 25.6037C29.8963 24.4377 29.4331 23.3194 28.6085 22.4949C27.784 21.6704 26.6658 21.2072 25.4997 21.2072ZM21.1473 21.2514C22.3017 20.097 23.8673 19.4485 25.4997 19.4485C27.1322 19.4485 28.6978 20.097 29.8521 21.2514C31.0064 22.4057 31.6549 23.9713 31.6549 25.6037C31.6549 27.2362 31.0064 28.8018 29.8521 29.9561C28.6978 31.1104 27.1322 31.7589 25.4997 31.7589C23.8673 31.7589 22.3017 31.1104 21.1473 29.9561C19.993 28.8018 19.3445 27.2362 19.3445 25.6037C19.3445 23.9713 19.993 22.4057 21.1473 21.2514Z" fill="white"/>
</g>
<defs>
<clipPath id="clip0_502_12">
<rect width="26.3793" height="26.3793" fill="white" transform="translate(12.3101 12.4141)"/>
</clipPath>
</defs>
</svg>
