<svg width="20" height="29" viewBox="0 0 20 29" fill="none" xmlns="http://www.w3.org/2000/svg">
<path d="M9.51189 0C4.26701 0 0 4.267 0 9.51183C0 16.0208 8.51221 25.5764 8.87462 25.98C9.21503 26.3592 9.80936 26.3585 10.1492 25.98C10.5116 25.5764 19.0238 16.0208 19.0238 9.51183C19.0237 4.267 14.7568 0 9.51189 0ZM9.51189 24.0958C6.64709 20.6928 1.71292 13.9791 1.71292 9.51193C1.71292 5.21148 5.21149 1.71291 9.51189 1.71291C13.8123 1.71291 17.3109 5.21148 17.3109 9.51188C17.3108 13.9792 12.3774 20.6917 9.51189 24.0958Z" fill="white"/>
<path d="M9.51217 4.72559C6.87335 4.72559 4.72656 6.87243 4.72656 9.51126C4.72656 12.1501 6.8734 14.2969 9.51217 14.2969C12.151 14.2969 14.2977 12.1501 14.2977 9.51126C14.2977 6.87243 12.151 4.72559 9.51217 4.72559ZM9.51217 12.584C7.81783 12.584 6.43948 11.2056 6.43948 9.51126C6.43948 7.81692 7.81788 6.43851 9.51217 6.43851C11.2065 6.43851 12.5849 7.81692 12.5849 9.51126C12.5849 11.2056 11.2065 12.584 9.51217 12.584Z" fill="white"/>
</svg>
