<svg width="36" height="36" viewBox="0 0 36 36" fill="none" xmlns="http://www.w3.org/2000/svg">
<g clip-path="url(#clip0_449_1244)">
<g clip-path="url(#clip1_449_1244)">
<mask id="mask0_449_1244" style="mask-type:luminance" maskUnits="userSpaceOnUse" x="0" y="0" width="36" height="36">
<path d="M36 0H0V36H36V0Z" fill="white"/>
</mask>
<g mask="url(#mask0_449_1244)">
<path d="M24.3817 11.6188C22.7626 9.99975 20.4769 8.95215 18.0007 8.95215C15.5245 8.95215 13.2388 9.95213 11.6197 11.6188C10.0007 13.2379 8.95312 15.5235 8.95312 17.9998C8.95312 20.4759 10.0007 22.7617 11.6197 24.3807C13.2388 25.9997 15.5245 27.0474 18.0007 27.0474C20.4769 27.0474 22.7626 26.0473 24.3817 24.3807C26.0008 22.7617 27.0484 20.4759 27.0484 17.9998C27.0484 15.5235 26.0484 13.2379 24.3817 11.6188ZM22.6674 22.6664C21.477 23.8569 19.8102 24.5712 18.0007 24.5712C16.1912 24.5712 14.5245 23.8569 13.3341 22.6664C12.1436 21.4759 11.4293 19.8093 11.4293 17.9998C11.4293 16.1902 12.1436 14.5236 13.3341 13.3331C14.5245 12.1426 16.1912 11.4283 18.0007 11.4283C19.8102 11.4283 21.477 12.1426 22.6674 13.3331C23.8579 14.5236 24.5721 16.1902 24.5721 17.9998C24.5721 19.8093 23.8579 21.4759 22.6674 22.6664Z" fill="white"/>
<path d="M34.7622 16.7617H31.0955C30.4288 16.7617 29.8574 17.3331 29.8574 17.9998C29.8574 18.6664 30.4288 19.2379 31.0955 19.2379H34.7622C35.4288 19.2379 36.0002 18.6664 36.0002 17.9998C36.0002 17.3331 35.4288 16.7617 34.7622 16.7617Z" fill="white"/>
<path d="M18.0008 29.8574C17.3341 29.8574 16.7627 30.4288 16.7627 31.0956V34.7623C16.7627 35.4289 17.3341 36.0003 18.0008 36.0003C18.6674 36.0003 19.2389 35.4289 19.2389 34.7623V31.0956C19.2389 30.4288 18.6674 29.8574 18.0008 29.8574Z" fill="white"/>
<path d="M30.7139 28.9997L28.0949 26.3806C27.6663 25.9044 26.8568 25.9044 26.3806 26.3806C25.9044 26.8568 25.9044 27.6186 26.3806 28.0948L28.9997 30.7139C29.4758 31.1901 30.2377 31.1901 30.7139 30.7139C31.1902 30.2377 31.1902 29.4758 30.7139 28.9997Z" fill="white"/>
<path d="M18.0008 0C17.3341 0 16.7627 0.571428 16.7627 1.2381V4.90476C16.7627 5.57143 17.3341 6.14285 18.0008 6.14285C18.6674 6.14285 19.2389 5.57143 19.2389 4.90476V1.2381C19.2389 0.571428 18.6674 0 18.0008 0Z" fill="white"/>
<path d="M30.7618 5.28585C30.2856 4.80966 29.5237 4.80966 29.0475 5.28585L26.4284 7.9049C25.9522 8.38105 25.9522 9.14302 26.4284 9.61921C26.8571 10.0954 27.6666 10.0954 28.1428 9.61921L30.7618 7.00014C31.2379 6.52395 31.2379 5.76204 30.7618 5.28585Z" fill="white"/>
<path d="M4.90476 16.7617H1.2381C0.571428 16.7617 0 17.3331 0 17.9998C0 18.6664 0.523809 19.2379 1.2381 19.2379H4.90476C5.57143 19.2379 6.14285 18.6664 6.14285 17.9998C6.14285 17.3331 5.57143 16.7617 4.90476 16.7617Z" fill="white"/>
<path d="M9.57131 26.3806C9.14275 25.9044 8.33324 25.9044 7.85705 26.3806L5.238 28.9997C4.76181 29.4758 4.76181 30.2377 5.238 30.7139C5.71419 31.1901 6.4761 31.1901 6.95229 30.7139L9.57131 28.0948C10.0475 27.6186 10.0475 26.8568 9.57131 26.3806Z" fill="white"/>
<path d="M9.57131 7.9049L6.95229 5.28585C6.4761 4.80966 5.71419 4.80966 5.238 5.28585C4.76181 5.76204 4.76181 6.52395 5.238 7.00014L7.85705 9.61921C8.33324 10.0954 9.09513 10.0954 9.57131 9.61921C10.0475 9.14302 10.0475 8.38105 9.57131 7.9049Z" fill="white"/>
</g>
</g>
</g>
<defs>
<clipPath id="clip0_449_1244">
<rect width="36" height="36" fill="white"/>
</clipPath>
<clipPath id="clip1_449_1244">
<rect width="36" height="36" fill="white"/>
</clipPath>
</defs>
</svg>
