<svg width="51" height="50" viewBox="0 0 51 50" fill="none" xmlns="http://www.w3.org/2000/svg">
<path fill-rule="evenodd" clip-rule="evenodd" d="M36.6158 14.4118C36.855 14.6118 36.9703 14.9234 36.9191 15.2309L33.4018 36.3343C33.3528 36.6287 33.1578 36.878 32.8841 36.9966C32.6103 37.1152 32.295 37.0869 32.0467 36.9214L21.495 29.8869C21.29 29.7502 21.1517 29.5337 21.1139 29.2902C21.0761 29.0467 21.1422 28.7985 21.2962 28.606L24.7926 24.2354L18.9533 28.1283C18.6908 28.3034 18.3545 28.3243 18.0723 28.1832L11.0378 24.6659C10.7228 24.5084 10.5321 24.1781 10.5534 23.8265C10.5746 23.4748 10.8036 23.1698 11.1353 23.0514L35.756 14.2583C36.0496 14.1534 36.3767 14.2118 36.6158 14.4118ZM13.6673 24.0145L18.4024 26.382L28.5295 19.6306C28.8902 19.3901 29.3724 19.4484 29.6654 19.768C29.9584 20.0876 29.9747 20.573 29.7039 20.9115L23.2686 28.9557L31.8907 34.7038L34.9384 16.4177L13.6673 24.0145Z" fill="white"/>
<path d="M50.5 24.7594C50.5 38.0645 39.3238 48.8801 25.5 48.8801C11.6762 48.8801 0.5 38.0645 0.5 24.7594C0.5 11.4543 11.6762 0.638672 25.5 0.638672C39.3238 0.638672 50.5 11.4543 50.5 24.7594Z" stroke="white"/>
</svg>
