<svg width="51" height="50" viewBox="0 0 51 50" fill="none" xmlns="http://www.w3.org/2000/svg">
<path fill-rule="evenodd" clip-rule="evenodd" d="M7.11428 16.1686C7.19285 16.0627 7.31855 16 7.45234 16H13.1912C13.352 16 13.4986 16.0903 13.568 16.2323C13.9102 16.9323 14.2456 17.6464 14.5792 18.3566C15.3625 20.0243 16.1358 21.6708 16.9637 23.064C17.5511 24.0527 18.1508 24.8861 18.7784 25.4895C19.2542 25.947 19.7309 26.2579 20.2164 26.4135V18.8561L18.4047 16.6651C18.3035 16.5428 18.2832 16.3744 18.3526 16.2324C18.4219 16.0904 18.5686 16 18.7295 16H26.707C26.9377 16 27.1247 16.1828 27.1247 16.4084V24.9795C28.472 23.8834 29.435 22.5738 30.2843 21.1731C30.6816 20.5181 31.0504 19.8494 31.4237 19.1725C31.5134 19.0098 31.6034 18.8466 31.6942 18.683C32.16 17.8431 32.6422 16.9975 33.1915 16.1835C33.2688 16.0689 33.3998 16 33.5402 16H39.0367C39.1663 16 39.2886 16.0588 39.3676 16.1592C39.4467 16.2596 39.4736 16.3902 39.4405 16.5127C38.4095 20.3286 36.4084 22.9877 34.4536 25.5855C34.3009 25.7884 34.1485 25.9909 33.9969 26.1936C36.7374 28.519 38.9273 31.4023 40.412 34.643C40.4699 34.7694 40.4583 34.9158 40.3813 35.032C40.3043 35.1482 40.1724 35.2184 40.0308 35.2184H33.9829C33.8827 35.2184 33.7859 35.1832 33.7101 35.1192C33.094 34.5996 32.5599 34.0274 32.0554 33.4661C31.9542 33.3535 31.8546 33.2418 31.7557 33.1309C31.3563 32.683 30.9705 32.2503 30.5567 31.8445C29.6354 30.9412 28.6067 30.2033 27.1247 29.8785V34.81C27.1247 35.0156 26.9683 35.1892 26.7596 35.2151C20.1751 36.032 15.7485 32.8837 12.7342 28.788C9.81977 24.8283 8.19081 19.9415 7.14624 16.8078C7.11542 16.7154 7.08511 16.6244 7.05528 16.5351C7.01377 16.4107 7.03571 16.2744 7.11428 16.1686ZM8.0279 16.8168C9.07799 19.9619 10.6609 24.5729 13.4122 28.311C16.2526 32.1702 20.3025 35.0563 26.2894 34.4461V29.3867C26.2894 29.2676 26.3425 29.1545 26.4349 29.0769C26.5272 28.9993 26.6496 28.965 26.77 28.983C28.7495 29.2781 30.0524 30.1933 31.1482 31.2679C31.5837 31.695 31.9926 32.1536 32.3937 32.6035C32.4905 32.712 32.5868 32.82 32.6829 32.9269C33.1487 33.4453 33.617 33.9466 34.14 34.4016H39.3765C37.8973 31.3925 35.78 28.7227 33.1628 26.5711C32.995 26.4332 32.9648 26.1919 33.0936 26.0185C33.3219 25.7112 33.5509 25.4066 33.7791 25.1031C35.645 22.6213 37.4637 20.2024 38.4863 16.8168H33.7665C33.2877 17.5438 32.8564 18.3007 32.4285 19.0723C32.3399 19.2322 32.2513 19.3928 32.1624 19.5539C31.7884 20.2321 31.4096 20.9189 31.0029 21.5897C29.9925 23.2559 28.7874 24.8619 26.9494 26.1419C26.822 26.2306 26.6546 26.2423 26.5157 26.1723C26.3767 26.1022 26.2894 25.9622 26.2894 25.8093V16.8168H19.6043L20.9589 18.4549C21.019 18.5276 21.0518 18.6182 21.0518 18.7116V26.9201C21.0518 27.0366 21.0009 27.1476 20.9119 27.2251C20.8229 27.3025 20.7042 27.3392 20.5859 27.3257C19.6888 27.2238 18.8973 26.7493 18.1927 26.0719C17.4887 25.395 16.8453 24.4908 16.2414 23.4743C15.3924 22.0456 14.5913 20.3402 13.8002 18.656C13.5085 18.0351 13.2182 17.417 12.9274 16.8168H8.0279Z" fill="white"/>
<path d="M50.5 24.7926C50.5 38.0977 39.3238 48.9133 25.5 48.9133C11.6762 48.9133 0.5 38.0977 0.5 24.7926C0.5 11.4875 11.6762 0.671875 25.5 0.671875C39.3238 0.671875 50.5 11.4875 50.5 24.7926Z" stroke="white"/>
</svg>
