<svg width="40" height="40" viewBox="0 0 40 40" fill="none" xmlns="http://www.w3.org/2000/svg">
<path d="M30.8109 39.3779C30.4372 39.3769 30.0647 39.3359 29.6998 39.2557C22.7516 37.8184 16.3504 34.4483 11.2331 29.5334C6.22495 24.6078 2.75153 18.3363 1.23309 11.4779C1.05405 10.6231 1.098 9.73667 1.3607 8.9038C1.6234 8.07093 2.09602 7.31969 2.73309 6.72234L7.17754 2.44456C7.40455 2.22988 7.67427 2.06548 7.96911 1.9621C8.26395 1.85871 8.57728 1.81866 8.88865 1.84456C9.2115 1.87824 9.52305 1.98224 9.80139 2.14925C10.0797 2.31626 10.3181 2.54221 10.4998 2.81123L16.0553 11.0223C16.2637 11.3409 16.3642 11.718 16.3422 12.098C16.3202 12.4781 16.1768 12.841 15.9331 13.1335L13.1442 16.4668C14.2549 18.9251 15.8279 21.1469 17.7775 23.0112C19.7145 24.9432 22.004 26.4859 24.522 27.5557L27.9775 24.8112C28.2678 24.5819 28.6209 24.4462 28.9901 24.4224C29.3592 24.3986 29.7269 24.4877 30.0442 24.6779L38.4331 30.1001C38.721 30.272 38.9662 30.5068 39.1505 30.7869C39.3347 31.0671 39.4532 31.3852 39.497 31.7177C39.5409 32.0501 39.5089 32.3881 39.4035 32.7064C39.2982 33.0247 39.1222 33.3151 38.8887 33.5557L34.5553 37.8446C34.0631 38.3344 33.4788 38.722 32.8362 38.9852C32.1936 39.2483 31.5053 39.3818 30.8109 39.3779ZM8.71087 4.04456L4.26643 8.32234C3.90804 8.65628 3.64275 9.07776 3.49663 9.54532C3.35052 10.0129 3.32862 10.5104 3.43309 10.989C4.84501 17.4247 8.09056 23.3138 12.7775 27.9446C17.5933 32.5685 23.6171 35.7383 30.1553 37.089C30.6502 37.1925 31.163 37.1715 31.6478 37.028C32.1326 36.8845 32.5743 36.6229 32.9331 36.2668L37.2664 31.9779L29.1664 26.7446L25.4553 29.7001C25.3132 29.8126 25.1458 29.8886 24.9677 29.9215C24.7895 29.9544 24.606 29.9433 24.4331 29.889C21.3517 28.7537 18.5592 26.9514 16.2553 24.6112C13.8724 22.3859 12.0227 19.6512 10.8442 16.6112C10.7943 16.4272 10.7927 16.2334 10.8394 16.0486C10.8861 15.8637 10.9796 15.694 11.1109 15.5557L14.1109 11.9668L8.71087 4.04456Z" fill="white"/>
</svg>
