<svg width="52" height="52" viewBox="0 0 52 52" fill="none" xmlns="http://www.w3.org/2000/svg">
<g clip-path="url(#clip0_409_602)">
<path d="M30.5955 23.0289C33.134 25.5674 33.134 29.683 30.5955 32.2215C28.0571 34.76 23.9414 34.76 21.4029 32.2215C18.8644 29.683 18.8644 25.5674 21.4029 23.0289C23.9414 20.4904 28.0571 20.4904 30.5955 23.0289Z" fill="white"/>
<path d="M45.4999 9.74925H41.0087L37.7571 3.24902H14.2398L10.9913 9.75244L6.50651 9.76043C2.93111 9.76682 0.0205464 12.6805 0.0174591 16.2575L0 42.2487C0 45.8337 2.91525 48.7505 6.50023 48.7505H45.4999C49.0849 48.7505 52.0001 45.8353 52.0001 42.2503V16.2494C52 12.6645 49.0848 9.74925 45.4999 9.74925ZM25.9992 40.6252C18.8308 40.6252 12.9987 34.7931 12.9987 27.6247C12.9987 20.4564 18.8308 14.6243 25.9992 14.6243C33.1676 14.6243 38.9997 20.4564 38.9997 27.6247C38.9997 34.7931 33.1676 40.6252 25.9992 40.6252Z" fill="white"/>
</g>
<defs>
<clipPath id="clip0_409_602">
<rect width="52" height="52" fill="white"/>
</clipPath>
</defs>
</svg>
